<?xml version="1.0" encoding="UTF-8"?><svg xmlns="http://www.w3.org/2000/svg" viewBox="0 0 7978.48 7975.6"><defs><style>.d{fill:#19d3c5;}.e{fill:#fff;}</style></defs><g id="a"/><g id="b"><g id="c"><path class="d" d="M3988,7975.48c-722.91,0-1445.83-.31-2168.74,.12-396.73,.24-760.26-107.07-1080.21-343.35-408.61-301.76-651.57-705.7-720.64-1210.38-12.66-92.53-17.39-186.81-17.46-280.29C-.1,4699.15-.32,3256.71,.5,1814.28,.81,1287.6,189.34,838.93,574.74,478.65,875.36,197.63,1234.23,41.29,1645.24,8.51c77.24-6.16,155.01-7.94,232.54-7.96,1426.42-.45,2852.84-.97,4279.26-.02,564.66,.38,1035.41,212.26,1401.49,643.31,265.49,312.61,398.96,679.09,416.21,1088.28,1.09,25.84,1.27,51.73,1.27,77.6,.06,1452.13,7.09,2904.32-2.81,4356.38-5.24,768.94-373.16,1323.98-1067.55,1656.4-235.34,112.66-488.69,153.16-748.9,153.06-722.91-.28-1445.83-.1-2168.74-.1Z"/><g><path class="e" d="M6708.01,2312.34c-195.27-195.28-511.88-195.27-707.15,0l-2643.77,2643.77c-195.28,195.28-195.28,511.88,0,707.16,97.65,97.65,225.59,146.45,353.58,146.45s255.95-48.83,353.58-146.45l2643.78-2643.77c195.28-195.28,195.28-511.88,0-707.16Z"/><path class="e" d="M3314.15,4356.02s.02-.02,.03-.03l1336.5-1336.5c195.28-195.28,195.28-511.88,0-707.16-195.27-195.28-511.88-195.27-707.15,0l-982.95,982.95-982.96-982.95c-195.28-195.27-511.88-195.27-707.15,0-195.28,195.28-195.28,511.88,0,707.16l982.95,982.95-953.67,953.67c-195.28,195.28-195.28,511.88,0,707.16,97.65,97.65,225.59,146.45,353.58,146.45s255.95-48.83,353.58-146.45l1307.21-1307.21s.02-.02,.03-.03Z"/></g></g></g></svg>