<svg xmlns="http://www.w3.org/2000/svg" viewBox="0 0 282.3 38.52"><defs><style>.cls-1{fill:#fff;}</style></defs><g id="Capa_2" data-name="Capa 2"><g id="Capa_1-2" data-name="Capa 1"><path class="cls-1" d="M108.42,1.55a5.27,5.27,0,0,0-7.47,0L90.56,11.94,80.17,1.55A5.29,5.29,0,0,0,72.69,9L83.08,19.41,73,29.49A5.29,5.29,0,1,0,80.48,37L108.42,9A5.27,5.27,0,0,0,108.42,1.55Z"/><path class="cls-1" d="M128.69,0a19.26,19.26,0,0,0-13.62,32.88A19.26,19.26,0,0,0,142.31,5.64,19.14,19.14,0,0,0,128.69,0Zm0,28a8.69,8.69,0,1,1,8.69-8.69A8.7,8.7,0,0,1,128.69,28Z"/><path class="cls-1" d="M184.26,0A5.22,5.22,0,0,0,179,5.24V19.49a8.58,8.58,0,1,1-17.16,0V5.24a5.23,5.23,0,0,0-10.45,0V19.49a19,19,0,0,0,38,0V5.24A5.22,5.22,0,0,0,184.26,0Z"/><path class="cls-1" d="M240,.24a5.33,5.33,0,0,0-6.67,3.51l-7.48,17.58L223,16.4a5.28,5.28,0,0,0-2.9-2.38h0l-.18-.06-.09,0-.13,0-.13,0-.1,0-.15,0h-.08l-.18,0h-.08l-.17,0H218l-.18,0h-.08l-.17,0h-.08l-.16,0-.1,0-.13,0-.13,0-.09,0-.18.06h0a5.3,5.3,0,0,0-2.91,2.38l-2.85,4.93L203.38,3.75a5.33,5.33,0,1,0-10.17,3.17l11.85,27.85A5.34,5.34,0,0,0,208,38.05h0l.23.09.05,0,.19.07.08,0,.16.05.11,0,.14,0,.12,0,.13,0,.12,0,.13,0h.13l.13,0h.39a.28.28,0,0,0,.13,0h.25l.16,0h.09l.19,0H211l.24,0h0l.32-.07a5.36,5.36,0,0,0,3.24-2.48l3.57-6.16,3.57,6.16a5.33,5.33,0,0,0,3.24,2.48l.31.07h0l.24,0h.06l.19,0h.1l.15,0h.26a.24.24,0,0,0,.12,0H227l.13,0h.13l.13,0,.13,0,.13,0,.12,0,.14,0,.1,0,.16-.05.09,0,.18-.07.05,0,.23-.09h0a5.31,5.31,0,0,0,2.91-3.28L243.47,6.92A5.35,5.35,0,0,0,240,.24Z"/><path class="cls-1" d="M277,28H263a8.67,8.67,0,0,1-6.89-3.41h10.11a5.29,5.29,0,1,0,0-10.57H256.15a8.69,8.69,0,0,1,6.89-3.4h14A5.29,5.29,0,1,0,277,0H263a19.26,19.26,0,0,0-19.26,19.26A19.26,19.26,0,0,0,263,38.52h14A5.29,5.29,0,1,0,277,28Z"/><path class="cls-1" d="M51.55,1.55,23.6,29.49A5.29,5.29,0,1,0,31.08,37L59,9a5.28,5.28,0,0,0-7.47-7.47Z"/><path class="cls-1" d="M23.15,23.15h0L37.28,9A5.29,5.29,0,0,0,29.8,1.55L19.41,11.94,9,1.55A5.28,5.28,0,0,0,1.55,9L11.94,19.41,1.86,29.49A5.29,5.29,0,1,0,9.33,37L23.15,23.15Z"/></g></g></svg>