<?xml version="1.0" encoding="UTF-8"?><svg xmlns="http://www.w3.org/2000/svg" viewBox="0 0 85.04 11.6"><defs><style>.d{fill:#19d3c5;}</style></defs><g id="a"/><g id="b"><g id="c"><g><g><path class="d" d="M32.66,.47c-.62-.62-1.63-.62-2.25,0l-3.13,3.13L24.15,.47c-.62-.62-1.63-.62-2.25,0-.62,.62-.62,1.63,0,2.25l3.13,3.13-3.04,3.04c-.62,.62-.62,1.63,0,2.25,.31,.31,.72,.47,1.13,.47s.81-.16,1.13-.47L32.66,2.72c.62-.62,.62-1.63,0-2.25Z"/><path class="d" d="M38.77,0c-1.55,0-3.01,.6-4.1,1.7-1.1,1.1-1.7,2.55-1.7,4.1s.6,3.01,1.7,4.1c1.1,1.1,2.55,1.7,4.1,1.7s3.01-.6,4.1-1.7c1.1-1.1,1.7-2.55,1.7-4.1s-.6-3.01-1.7-4.1c-1.1-1.1-2.55-1.7-4.1-1.7Zm0,8.42c-1.44,0-2.62-1.17-2.62-2.62s1.17-2.62,2.62-2.62,2.62,1.17,2.62,2.62-1.17,2.62-2.62,2.62Z"/><path class="d" d="M55.51,0c-.87,0-1.57,.7-1.57,1.57V5.87c0,1.43-1.16,2.58-2.58,2.58s-2.58-1.16-2.58-2.58V1.58c0-.87-.7-1.57-1.57-1.57s-1.57,.7-1.57,1.57V5.87c0,1.53,.6,2.97,1.68,4.05,1.08,1.08,2.52,1.68,4.05,1.68s2.97-.6,4.05-1.68c1.08-1.08,1.68-2.52,1.68-4.05V1.58c0-.87-.7-1.57-1.57-1.57Z"/></g><path class="d" d="M72.29,.07c-.85-.26-1.75,.21-2.01,1.06l-2.25,5.3-.86-1.48c-.2-.35-.52-.6-.87-.72h-.01s-.04-.02-.05-.02h-.03l-.04-.02h-.04l-.03-.02h-.07s-.04-.02-.05-.02h-.02s-.04,0-.05,0h-.08s-.03,0-.04,0c-.01,0-.03,0-.04,0h-.08s-.04,0-.05,0h-.02s-.04,0-.05,0h-.07l-.03,.02h-.04l-.04,.02h-.03s-.04,.02-.05,.02h-.01c-.36,.12-.67,.37-.87,.72l-.86,1.48-2.25-5.3c-.26-.85-1.16-1.32-2.01-1.06-.85,.26-1.32,1.16-1.06,2.01l3.57,8.39c.14,.46,.47,.8,.88,.99h0s.05,.02,.07,.03h.02s.04,.02,.06,.03h.03l.05,.02h.03l.04,.02h.04l.04,.02h.08l.04,.02h.16s.03,.01,.04,0h.15s.04-.01,.06-.02h.02s.05-.01,.07-.02h0s.06-.01,.1-.02c.4-.11,.75-.36,.98-.75l1.07-1.86,1.07,1.86c.22,.38,.58,.64,.98,.75,.03,0,.06,.02,.1,.02h0s.05,0,.07,.01h.02s.04,0,.06,0h.15s.03,0,.04,0h.2l.04-.02h.08l.04-.02h.04l.03-.02h.05l.03-.02s.04-.01,.06-.02h.02s.05-.02,.07-.04h0c.4-.18,.73-.53,.88-.99l3.57-8.39c.26-.85-.21-1.75-1.06-2.01Z"/><path class="d" d="M83.45,8.42h-4.21c-.84,0-1.6-.4-2.08-1.02h3.05c.88,0,1.59-.71,1.59-1.59s-.71-1.59-1.59-1.59h-3.05c.48-.62,1.23-1.02,2.08-1.02h4.21c.88,0,1.59-.71,1.59-1.59S84.33,0,83.45,0h-4.21C77.69,0,76.23,.6,75.14,1.7c-1.1,1.1-1.7,2.55-1.7,4.1s.6,3.01,1.7,4.1c1.1,1.1,2.55,1.7,4.1,1.7h4.21c.88,0,1.59-.71,1.59-1.59s-.71-1.59-1.59-1.59Z"/><path class="d" d="M15.53,.47L7.11,8.88c-.62,.62-.62,1.63,0,2.25,.31,.31,.72,.47,1.13,.47s.81-.16,1.13-.47L17.78,2.72c.62-.62,.62-1.63,0-2.25-.62-.62-1.63-.62-2.25,0Z"/><path class="d" d="M6.97,6.97h0L11.23,2.72c.62-.62,.62-1.63,0-2.25-.62-.62-1.63-.62-2.25,0l-3.13,3.13L2.72,.47C2.1-.16,1.09-.16,.47,.47-.16,1.09-.16,2.1,.47,2.72l3.13,3.13L.56,8.88c-.62,.62-.62,1.63,0,2.25,.31,.31,.72,.47,1.13,.47s.81-.16,1.13-.47L6.97,6.97h0Z"/></g></g></g></svg>